<svg xmlns="http://www.w3.org/2000/svg" width="150" height="50.428" viewBox="0 0 150 50.428">
  <path id="Path_333" data-name="Path 333" d="M89.088,4.01C84.679,5.479,79.459,7.557,75,7.557S65.372,5.479,60.912,4.01C49.054.108,19-2.426,0,3.655L.557,14.2a3.966,3.966,0,0,1,4.611,3.041c1.166,3.8,3.8,19.459,8.615,25.591,6.03,7.6,18.953,7.905,27.72,7.5,11.807-.507,19.51-5.726,22.8-14.595s5.169-16.47,7.247-18.851A4.035,4.035,0,0,1,75,15.513a4.241,4.241,0,0,1,3.446,1.368c2.128,2.432,3.953,10.034,7.247,18.851s11,14.088,22.8,14.595c8.767.355,21.689.1,27.72-7.5,4.865-6.132,7.5-21.791,8.615-25.591a3.95,3.95,0,0,1,4.611-3.041L150,3.655C131-2.426,100.946.108,89.088,4.01ZM3.5,8.571C3.5,7.81,5.422,7.2,7.753,7.2s4.257.608,4.257,1.368S10.084,9.939,7.753,9.939,3.5,9.331,3.5,8.571ZM59.037,35.682c-3.193,5.98-8.463,9.02-16.47,10.034S25.034,45.158,20.22,42.27c-4.257-2.534-6.284-10.541-7.3-15.3s-2.787-15.2,2.128-18.649S32.432,4.669,40.642,5.175c6.182.405,19.662,2.027,22.2,6.841S61.622,30.868,59.037,35.682Zm78.041-8.716c-1.014,4.814-3.091,12.821-7.3,15.3-4.814,2.889-14.341,4.459-22.348,3.446s-13.277-4.054-16.47-10.034c-2.584-4.814-6.334-18.851-3.8-23.716s15.963-6.486,22.2-6.841c8.209-.507,20.676-.253,25.591,3.142S138.091,22.152,137.078,26.966Zm5.169-17.027c-2.331,0-4.257-.608-4.257-1.368S139.916,7.2,142.247,7.2s4.257.608,4.257,1.368S144.578,9.939,142.247,9.939Z" transform="translate(0 -0.013)" fill="#323232"/>
</svg>
